<?xml version="1.0" encoding="UTF-8" standalone="no"?>
<!-- Created with Inkscape (http://www.inkscape.org/) -->

<svg
   width="210mm"
   height="54.444447mm"
   viewBox="0 0 210 54.444447"
   version="1.1"
   id="svg1"
   xmlns="http://www.w3.org/2000/svg"
   xmlns:svg="http://www.w3.org/2000/svg">
  <defs
     id="defs1" />
  <g
     id="layer1">
    <g
       style="fill:#050505;fill-opacity:1"
       id="g10"
       transform="matrix(0.2270884,0,0,0.2270884,-44.33901,-116.30519)">
      <path
         d="m 263.75,580.6582 v 34.25 34.25 34.25 H 298 v -34.25 -8.5625 h 34.25 v -17.125 H 298 v -8.5625 -34.25 z m 68.5,42.8125 h 34.25 v -42.8125 h -34.25 z m 0,17.125 v 42.8125 h 34.25 v -42.8125 z"
         style="opacity:1;fill:#050505;fill-opacity:1;fill-rule:evenodd;stroke:none;stroke-width:1.11803;stroke-linecap:round;stroke-miterlimit:4;stroke-dasharray:none"
         id="path4" />
      <path
         d="m 400.75,580.6582 v 34.25 34.25 34.25 H 435 v -34.25 -8.5625 h 34.25 v 8.5625 34.25 h 34.25 v -34.25 -34.25 -34.25 H 469.25 435 Z m 34.25,34.25 h 34.25 v 8.5625 H 435 Z"
         style="opacity:1;fill:#050505;fill-opacity:1;fill-rule:evenodd;stroke:none;stroke-width:1;stroke-linecap:round;stroke-miterlimit:4;stroke-dasharray:none"
         id="path5" />
      <path
         d="m 537.75,580.6582 v 34.25 34.25 34.25 H 572 606.25 640.5 v -34.25 -8.5625 h -17.125 v -17.125 H 640.5 v -8.5625 -34.25 H 606.25 572 Z m 34.25,34.25 h 34.25 v 8.5625 h -17.125 v 17.125 h 17.125 v 8.5625 H 572 Z"
         style="opacity:1;fill:#050505;fill-opacity:1;fill-rule:evenodd;stroke:none;stroke-width:1;stroke-linecap:round;stroke-miterlimit:4;stroke-dasharray:none"
         id="path6" />
      <path
         d="m 674.75,580.6582 v 34.25 34.25 34.25 H 709 743.25 777.5 v -34.25 -34.25 -34.25 H 743.25 709 Z m 34.25,34.25 h 34.25 v 34.25 H 709 Z"
         style="opacity:1;fill:#050505;fill-opacity:1;fill-rule:evenodd;stroke:none;stroke-width:1;stroke-linecap:round;stroke-miterlimit:4;stroke-dasharray:none"
         id="path7" />
      <path
         d="m 811.75,580.6582 v 34.25 34.25 34.25 H 846 880.25 914.5 v -34.25 -34.25 -34.25 H 880.25 846 Z m 34.25,34.25 h 34.25 v 34.25 H 846 Z"
         style="opacity:1;fill:#050505;fill-opacity:1;fill-rule:evenodd;stroke:none;stroke-width:1;stroke-linecap:round;stroke-miterlimit:4;stroke-dasharray:none"
         id="path8" />
      <path
         d="m 948.75,580.6582 v 34.25 34.25 34.25 H 983 v -34.25 -34.25 h 8.5625 v 17.125 h 17.125 v -17.125 h 8.5625 v 34.25 34.25 h 34.25 v -34.25 -34.25 -34.25 h -34.25 -8.5625 v 17.125 h -17.125 v -17.125 H 983 Z"
         style="opacity:1;fill:#050505;fill-opacity:1;fill-rule:evenodd;stroke:none;stroke-width:1;stroke-linecap:round;stroke-miterlimit:4;stroke-dasharray:none"
         id="path9" />
      <path
         d="m 195.25,512.1582 v 34.25 34.25 34.25 34.25 34.25 34.25 17.125 h 17.125 v 17.125 h 17.125 34.25 34.25 34.25 34.25 34.25 34.25 34.25 34.25 34.25 34.25 34.25 34.25 34.25 34.25 34.25 34.25 34.25 34.25 34.25 34.25 34.25 34.25 34.25 34.25 34.25 34.25 v -34.25 -34.25 -34.25 -34.25 -34.25 -34.25 -17.125 h -17.125 v -17.125 H 1085.75 1051.5 1017.25 983 948.75 914.5 880.25 846 811.75 777.5 743.25 709 674.75 640.5 606.25 572 537.75 503.5 469.25 435 400.75 366.5 332.25 298 263.75 229.5 Z m 34.25,34.25 h 34.25 34.25 34.25 34.25 34.25 34.25 34.25 34.25 34.25 34.25 34.25 34.25 34.25 34.25 34.25 34.25 34.25 34.25 34.25 34.25 34.25 34.25 34.25 34.25 34.25 v 34.25 34.25 34.25 34.25 34.25 H 1051.5 1017.25 983 948.75 914.5 880.25 846 811.75 777.5 743.25 709 674.75 640.5 606.25 572 537.75 503.5 469.25 435 400.75 366.5 332.25 298 263.75 229.5 v -34.25 -34.25 -34.25 -34.25 z"
         style="opacity:1;fill:#050505;fill-opacity:1;fill-rule:evenodd;stroke:none;stroke-width:1;stroke-linecap:round;stroke-miterlimit:4;stroke-dasharray:none"
         id="path10" />
    </g>
  </g>
</svg>
